<svg width="196" height="88" viewBox="0 0 196 88" fill="none" xmlns="http://www.w3.org/2000/svg">
<path d="M29.76 43.088C32.2773 43.5573 34.3467 44.816 35.968 46.864C37.5893 48.912 38.4 51.2587 38.4 53.904C38.4 56.2933 37.8027 58.4053 36.608 60.24C35.456 62.032 33.7707 63.44 31.552 64.464C29.3333 65.488 26.7093 66 23.68 66H4.416V21.328H22.848C25.8773 21.328 28.48 21.8187 30.656 22.8C32.8747 23.7813 34.5387 25.1467 35.648 26.896C36.8 28.6453 37.376 30.6293 37.376 32.848C37.376 35.4507 36.672 37.6267 35.264 39.376C33.8987 41.1253 32.064 42.3627 29.76 43.088ZM13.376 39.76H21.568C23.7013 39.76 25.344 39.2907 26.496 38.352C27.648 37.3707 28.224 35.984 28.224 34.192C28.224 32.4 27.648 31.0133 26.496 30.032C25.344 29.0507 23.7013 28.56 21.568 28.56H13.376V39.76ZM22.4 58.704C24.576 58.704 26.2613 58.192 27.456 57.168C28.6933 56.144 29.312 54.6933 29.312 52.816C29.312 50.896 28.672 49.4027 27.392 48.336C26.112 47.2267 24.384 46.672 22.208 46.672H13.376V58.704H22.4ZM78.821 47.504C78.821 48.784 78.7357 49.936 78.565 50.96H52.645C52.8583 53.52 53.7543 55.5253 55.333 56.976C56.9117 58.4267 58.853 59.152 61.157 59.152C64.485 59.152 66.853 57.7227 68.261 54.864H77.925C76.901 58.2773 74.9383 61.0933 72.037 63.312C69.1357 65.488 65.573 66.576 61.349 66.576C57.9357 66.576 54.8637 65.8293 52.133 64.336C49.445 62.8 47.333 60.6453 45.797 57.872C44.3037 55.0987 43.557 51.8987 43.557 48.272C43.557 44.6027 44.3037 41.3813 45.797 38.608C47.2903 35.8347 49.381 33.7013 52.069 32.208C54.757 30.7147 57.8503 29.968 61.349 29.968C64.7197 29.968 67.7277 30.6933 70.373 32.144C73.061 33.5947 75.1303 35.664 76.581 38.352C78.0743 40.9973 78.821 44.048 78.821 47.504ZM69.541 44.944C69.4983 42.64 68.6663 40.8053 67.045 39.44C65.4237 38.032 63.4397 37.328 61.093 37.328C58.8743 37.328 56.997 38.0107 55.461 39.376C53.9677 40.6987 53.0503 42.5547 52.709 44.944H69.541Z" fill="white"/>
<g filter="url(#filter0_d_14_14)">
<path d="M93.096 27.408V40.464H108.456V46.416H93.096V60.048H110.376V66H85.8V21.456H110.376V27.408H93.096ZM117.25 48.336C117.25 44.7093 117.976 41.5307 119.426 38.8C120.92 36.0267 122.968 33.8933 125.571 32.4C128.173 30.9067 131.16 30.16 134.531 30.16C138.797 30.16 142.317 31.184 145.091 33.232C147.907 35.2373 149.805 38.1173 150.787 41.872H142.915C142.275 40.1227 141.251 38.7573 139.843 37.776C138.435 36.7947 136.664 36.304 134.531 36.304C131.544 36.304 129.155 37.3707 127.363 39.504C125.613 41.5947 124.739 44.5387 124.739 48.336C124.739 52.1333 125.613 55.0987 127.363 57.232C129.155 59.3653 131.544 60.432 134.531 60.432C138.755 60.432 141.549 58.576 142.915 54.864H150.787C149.763 58.448 147.843 61.3067 145.027 63.44C142.211 65.5307 138.712 66.576 134.531 66.576C131.16 66.576 128.173 65.8293 125.571 64.336C122.968 62.8 120.92 60.6667 119.426 57.936C117.976 55.1627 117.25 51.9627 117.25 48.336ZM173.674 66.576C170.346 66.576 167.338 65.8293 164.649 64.336C161.961 62.8 159.849 60.6667 158.313 57.936C156.777 55.1627 156.009 51.9627 156.009 48.336C156.009 44.752 156.799 41.5733 158.377 38.8C159.956 36.0267 162.111 33.8933 164.842 32.4C167.572 30.9067 170.623 30.16 173.993 30.16C177.364 30.16 180.415 30.9067 183.146 32.4C185.876 33.8933 188.031 36.0267 189.61 38.8C191.188 41.5733 191.978 44.752 191.978 48.336C191.978 51.92 191.167 55.0987 189.546 57.872C187.924 60.6453 185.706 62.8 182.89 64.336C180.116 65.8293 177.044 66.576 173.674 66.576ZM173.674 60.24C175.551 60.24 177.3 59.792 178.922 58.896C180.586 58 181.93 56.656 182.954 54.864C183.978 53.072 184.49 50.896 184.49 48.336C184.49 45.776 183.999 43.6213 183.017 41.872C182.036 40.08 180.735 38.736 179.114 37.84C177.492 36.944 175.743 36.496 173.865 36.496C171.988 36.496 170.239 36.944 168.618 37.84C167.039 38.736 165.78 40.08 164.842 41.872C163.903 43.6213 163.434 45.776 163.434 48.336C163.434 52.1333 164.394 55.0773 166.314 57.168C168.276 59.216 170.729 60.24 173.674 60.24Z" fill="#0C630A"/>
</g>
<defs>
<filter id="filter0_d_14_14" x="81.7998" y="21.4561" width="114.178" height="53.1201" filterUnits="userSpaceOnUse" color-interpolation-filters="sRGB">
<feFlood flood-opacity="0" result="BackgroundImageFix"/>
<feColorMatrix in="SourceAlpha" type="matrix" values="0 0 0 0 0 0 0 0 0 0 0 0 0 0 0 0 0 0 127 0" result="hardAlpha"/>
<feOffset dy="4"/>
<feGaussianBlur stdDeviation="2"/>
<feComposite in2="hardAlpha" operator="out"/>
<feColorMatrix type="matrix" values="0 0 0 0 0 0 0 0 0 0 0 0 0 0 0 0 0 0 0.25 0"/>
<feBlend mode="normal" in2="BackgroundImageFix" result="effect1_dropShadow_14_14"/>
<feBlend mode="normal" in="SourceGraphic" in2="effect1_dropShadow_14_14" result="shape"/>
</filter>
</defs>
</svg>
